<svg height="512" viewBox="0 0 512 512" width="512" xmlns="http://www.w3.org/2000/svg"><g id="Fill_out_line" data-name="Fill out line"><rect fill="#8acce7" height="320" rx="32" width="464" x="24" y="104"/><path d="m24 376h464a0 0 0 0 1 0 0v16a32 32 0 0 1 -32 32h-400a32 32 0 0 1 -32-32v-16a0 0 0 0 1 0 0z" fill="#379ec3"/><path d="m64 136h384a8 8 0 0 1 8 8v232a0 0 0 0 1 0 0h-400a0 0 0 0 1 0 0v-232a8 8 0 0 1 8-8z" fill="#a2c32a"/><path d="m224 424v32a32 32 0 0 1 -32 32h128a32 32 0 0 1 -32-32v-32z" fill="#8acce7"/><path d="m424 56v320h-336v-320a32.004 32.004 0 0 1 32-32h272a32.004 32.004 0 0 1 32 32z" fill="#eedc9a"/><path d="m424 56v32h-336v-32a32.004 32.004 0 0 1 32-32h272a32.004 32.004 0 0 1 32 32z" fill="#eebe33"/><path d="m142.13368 307.54452 93.35142-153.75527a24 24 0 0 1 41.0298 0l93.35142 153.75527a24 24 0 0 1 -20.5149 36.45548h-186.70284a24 24 0 0 1 -20.5149-36.45548z" fill="#e44042"/><circle cx="256" cy="304" fill="#c4d4e0" r="16"/><path d="m248 264h16l16-64h-48z" fill="#c4d4e0"/><path d="m456 96h-24v-40a40.04521 40.04521 0 0 0 -40-40h-272a40.04521 40.04521 0 0 0 -40 40v40h-24a40.04521 40.04521 0 0 0 -40 40v256a40.04521 40.04521 0 0 0 40 40h160v24a24.02687 24.02687 0 0 1 -24 24 8 8 0 0 0 0 16h128a8 8 0 0 0 0-16 24.02687 24.02687 0 0 1 -24-24v-24h160a40.04521 40.04521 0 0 0 40-40v-256a40.04521 40.04521 0 0 0 -40-40zm0 16a24.0275 24.0275 0 0 1 24 24v232h-16v-224a16.01833 16.01833 0 0 0 -16-16h-16v-16zm-8 256h-16v-224h16zm-328-336h272a24.0275 24.0275 0 0 1 24 24v312h-320v-312a24.0275 24.0275 0 0 1 24-24zm-40 336h-16v-224h16zm-24-256h24v16h-16a16.01833 16.01833 0 0 0 -16 16v224h-16v-232a24.0275 24.0275 0 0 1 24-24zm232.019 368h-64.038a39.7957 39.7957 0 0 0 8.019-24v-24h48v24a39.7957 39.7957 0 0 0 8.019 24zm167.981-64h-400a24.0275 24.0275 0 0 1 -24-24v-8h448v8a24.0275 24.0275 0 0 1 -24 24z"/><circle cx="256" cy="400" r="8"/><circle cx="120" cy="56" r="8"/><circle cx="144" cy="56" r="8"/><circle cx="168" cy="56" r="8"/><path d="m112 80h296v16h-296z"/><path d="m256 280a24 24 0 1 0 24 24 24.02687 24.02687 0 0 0 -24-24zm0 32a8 8 0 1 1 8-8 8.00917 8.00917 0 0 1 -8 8z"/><path d="m225.69434 195.07666a8.00121 8.00121 0 0 0 -1.45557 6.86377l16 64a8.00059 8.00059 0 0 0 7.76123 6.05957h16a8.00059 8.00059 0 0 0 7.76123-6.05957l16-64a8.0001 8.0001 0 0 0 -7.76123-9.94043h-48a7.99974 7.99974 0 0 0 -6.30566 3.07666zm44.05957 12.92334-12 48h-3.50782l-12-48z"/><path d="m349.35156 352h-186.70312a31.99984 31.99984 0 0 1 -27.353-48.60742l93.35107-153.75537a32.0007 32.0007 0 0 1 54.707 0l93.35107 153.75537a31.99984 31.99984 0 0 1 -27.35302 48.60742zm-93.35156-201.75537a15.88185 15.88185 0 0 0 -13.67676 7.69629l-93.35107 153.75537a15.99971 15.99971 0 0 0 13.67627 24.30371h186.70312a15.99971 15.99971 0 0 0 13.67627-24.30371l-93.35107-153.75537a15.88185 15.88185 0 0 0 -13.67676-7.69629z"/></g></svg>