<svg id="Layer_5" enable-background="new 0 0 64 64" height="512" viewBox="0 0 64 64" width="512" xmlns="http://www.w3.org/2000/svg"><g><g><g><path d="m32 10h-18v-4c0-2.21 1.79-4 4-4h10v4c0 2.21 1.79 4 4 4z" fill="#969faa"/></g><g><path d="m50 6v4h-18c1.1 0 2.1-.45 2.83-1.17.72-.73 1.17-1.73 1.17-2.83v-4h10c2.21 0 4 1.79 4 4z" fill="#969faa"/></g><g><path d="m50 50v8c0 2.21-1.79 4-4 4h-28c-2.21 0-4-1.79-4-4v-8z" fill="#969faa"/></g><g><path d="m22 55v2c0 .55-.45 1-1 1h-2c-.55 0-1-.45-1-1v-2c0-.55.45-1 1-1h2c.55 0 1 .45 1 1z" fill="#e6e9ed"/></g><g><path d="m36 55v2c0 .55-.45 1-1 1h-6c-.55 0-1-.45-1-1v-2c0-.55.45-1 1-1h6c.55 0 1 .45 1 1z" fill="#e6e9ed"/></g><g><path d="m46 55v2c0 .55-.45 1-1 1h-2c-.55 0-1-.45-1-1v-2c0-.55.45-1 1-1h2c.55 0 1 .45 1 1z" fill="#e6e9ed"/></g><g><path d="m28 2h8v4c0 1.1-.45 2.1-1.17 2.83-.73.72-1.73 1.17-2.83 1.17-2.21 0-4-1.79-4-4z" fill="#fcd770"/></g><g><path d="m14 10h36v40h-36z" fill="#69d6f4"/></g><g><path d="m36.39 16.61c.39.71.61 1.52.61 2.39 0 2.76-2.24 5-5 5s-5-2.24-5-5 2.24-5 5-5c1.89 0 3.54 1.05 4.39 2.61z" fill="#ff826e"/></g><g><path d="m24 32c1.1 0 2 .9 2 2 0 .55-.22 1.05-.59 1.41-.36.37-.86.59-1.41.59 1.1 0 2 .9 2 2 0 .55-.22 1.05-.59 1.41-.36.37-.86.59-1.41.59h-2c1.1 0 2 .9 2 2 0 .55-.22 1.05-.59 1.41-.36.37-.86.59-1.41.59h-8-3c-1.3 0-2.56-.42-3.6-1.2l-2.4-1.8h-3l.04-16h2.96l4.78-2.37c.83-.42 1.74-.63 2.67-.63h1.55 2.56c.97 0 1.94-.23 2.81-.66l2.33-1.17c.22-.11.47-.17.72-.17.9 0 1.62.72 1.62 1.62v.09c0 3.48-2.81 6.29-6.28 6.29h18.24c1.1 0 2 .9 2 2 0 .55-.22 1.05-.59 1.41-.36.37-.86.59-1.41.59z" fill="#f0d0b4"/></g><g><path d="m62 22v16c0 1.1-.9 2-2 2h-10-6c-1.1 0-2-.9-2-2v-16c0-1.1.9-2 2-2h4v6h4 4v-6h4c1.1 0 2 .9 2 2z" fill="#d3a06c"/></g><g><path d="m50 20h6v6h-4-4v-6z" fill="#b27946"/></g></g><g><path d="m35 53h-6c-1.103 0-2 .897-2 2v2c0 1.103.897 2 2 2h6c1.103 0 2-.897 2-2v-2c0-1.103-.897-2-2-2zm-6 4v-2h6l.002 2z"/><path d="m21 53h-2c-1.103 0-2 .897-2 2v2c0 1.103.897 2 2 2h2c1.103 0 2-.897 2-2v-2c0-1.103-.897-2-2-2zm-2 4v-2h2l.002 2z"/><path d="m45 53h-2c-1.103 0-2 .897-2 2v2c0 1.103.897 2 2 2h2c1.103 0 2-.897 2-2v-2c0-1.103-.897-2-2-2zm-2 4v-2h2l.002 2z"/><circle cx="32" cy="6" r="1"/><path d="m60 19h-9v-13c0-2.757-2.243-5-5-5h-28c-2.757 0-5 2.243-5 5v15h-.551c-1.075 0-2.151.253-3.112.73l-4.571 2.27h-3.721l-.048 18h3.67l2.133 1.6c1.203.903 2.694 1.4 4.2 1.4h2v13c0 2.757 2.243 5 5 5h28c2.757 0 5-2.243 5-5v-17h9c1.654 0 3-1.346 3-3v-16c0-1.654-1.346-3-3-3zm-9 4v2h-2v-4h6v4h-2v-2zm-2-17v3h-13.026c.635-.838 1.026-1.87 1.026-3v-3h9c1.654 0 3 1.346 3 3zm-20 0v-3h6v3c0 1.654-1.346 3-3 3s-3-1.346-3-3zm-11-3h9v3c0 1.13.391 2.162 1.026 3h-13.026v-3c0-1.654 1.346-3 3-3zm-10 39-2.667-2h-2.33l.036-14h2.195l4.992-2.479c.687-.34 1.456-.521 2.223-.521h4.108c1.125 0 2.252-.267 3.259-.77l2.331-1.165c.39-.194.895.09.895.648-.001 2.916-2.373 5.287-5.287 5.287h-1.713-2v2h2 1.713 18.245c.552 0 1 .448 1 1s-.448 1-1 1h-12-4v2h4c.552 0 1 .448 1 1s-.448 1-1 1h-4v2h4c.552 0 1 .448 1 1s-.448 1-1 1h-2-2v2h2c.552 0 1 .448 1 1s-.448 1-1 1h-11c-1.075 0-2.141-.355-3-1zm38 19h-28c-1.654 0-3-1.346-3-3v-7h34v7c0 1.654-1.346 3-3 3zm3-12h-34v-4h7c1.654 0 3-1.346 3-3 0-.395-.081-.77-.22-1.116 1.275-.346 2.22-1.501 2.22-2.884 0-.771-.301-1.468-.78-2 .48-.532.78-1.229.78-2 0-.352-.072-.686-.184-1h9.184c1.654 0 3-1.346 3-3s-1.346-3-3-3h-13.258c1.411-1.341 2.299-3.245 2.3-5.382 0-1.443-1.175-2.618-2.618-2.618-.404 0-.81.096-1.171.276l-2.331 1.165c-.731.366-1.548.559-2.364.559h-1.558v-10h34v8h-5c-1.654 0-3 1.346-3 3v16c0 1.654 1.346 3 3 3h5zm12-11c0 .552-.448 1-1 1h-16c-.552 0-1-.448-1-1v-16c0-.552.448-1 1-1h3v6h10v-6h3c.552 0 1 .448 1 1z"/><path d="m53 35h2v2h-2z"/><path d="m57 35h2v2h-2z"/><path d="m36.52 15.066c-1.101-1.263-2.717-2.066-4.52-2.066-3.309 0-6 2.691-6 6s2.691 6 6 6 6-2.691 6-6c0-.767-.15-1.498-.413-2.173l3.12-3.12-1.414-1.414zm-.52 3.934c0 2.206-1.794 4-4 4s-4-1.794-4-4 1.794-4 4-4c1.253 0 2.358.59 3.092 1.494l-3.092 3.092-1.293-1.293-1.414 1.414 2.707 2.707 3.946-3.946c.024.176.054.35.054.532z"/><path d="m29 41h10v2h-10z"/><path d="m29 45h10v2h-10z"/></g></g></svg>